<svg xmlns="http://www.w3.org/2000/svg" width="400" height="400">
  <style>
    .cube {
      animation: rotation 3s cubic-bezier(0.215, 0.61, 0.355, 1) 0.5s forwards;
    }

    .wall {
      animation: color 2s linear 1.5s forwards;
    }

    @keyframes rotation {
      100% {
        transform: rotateX(270deg) rotateY(270deg);
      }
    }

    @keyframes color {
      100% {
        fill: #fff;
      }
    }
  </style>
  <!-- Cube 1 -->
  <g class="cube" transform="translate(50, 50)">
    <!-- Front -->
    <polygon class="wall" points="0,0 80,0 80,80 0,80" />
    <!-- Back -->
    <polygon class="wall" points="0,0 0,80 80,80 80,0" />
    <!-- Left -->
    <polygon class="wall" points="0,0 0,80 0,80 0,0" />
    <!-- Right -->
    <polygon class="wall" points="80,0 80,80 80,80 80,0" />
    <!-- Top -->
    <polygon class="wall" points="0,0 80,0 80,0 0,0" />
    <!-- Bottom -->
    <polygon class="wall" points="0,80 80,80 80,80 0,80" />
  </g>

  <!-- Cube 2 -->
  <g class="cube" transform="translate(170, 50)">
    <!-- Front -->
    <polygon class="wall" points="0,0 80,0 80,80 0,80" />
    <!-- Back -->
    <polygon class="wall" points="0,0 0,80 80,80 80,0" />
    <!-- Left -->
    <polygon class="wall" points="0,0 0,80 0,80 0,0" />
    <!-- Right -->
    <polygon class="wall" points="80,0 80,80 80,80 80,0" />
    <!-- Top -->
    <polygon class="wall" points="0,0 80,0 80,0 0,0" />
    <!-- Bottom -->
    <polygon class="wall" points="0,80 80,80 80,80 0,80" />
  </g>
</svg>
